Jump_normalized_Precision Landing16_filtered_grf
version=1
nRows=12
nColumns=37
inDegrees=yes
endheader
time		1_ground_force_vx		1_ground_force_vy		1_ground_force_vz		1_ground_force_px		1_ground_force_py		1_ground_force_pz		1_ground_torque_x		1_ground_torque_y		1_ground_torque_z		2_ground_force_vx		2_ground_force_vy		2_ground_force_vz		2_ground_force_px		2_ground_force_py		2_ground_force_pz		2_ground_torque_x		2_ground_torque_y		2_ground_torque_z		3_ground_force_vx		3_ground_force_vy		3_ground_force_vz		3_ground_force_px		3_ground_force_py		3_ground_force_pz		3_ground_torque_x		3_ground_torque_y		3_ground_torque_z		4_ground_force_vx		4_ground_force_vy		4_ground_force_vz		4_ground_force_px		4_ground_force_py		4_ground_force_pz		4_ground_torque_x		4_ground_torque_y		4_ground_torque_z		
0.379500		-0.000000		0.000000		0.000000		0.082987		0.000000		0.398289		0.000000		0.000000		-0.000000		0.000000		0.000000		0.000000		-0.148927		0.000000		0.420500		0.000000		-0.000000		0.000000		-17.539206		461.257771		77.225554		0.352992		1.254063		1.892447		0.983544		-25.865906		-4.330570		13.328905		542.092878		25.492943		-0.289917		1.263913		1.903776		0.759133		30.874307		1.451923		
0.383061		-0.000000		-0.000000		0.000000		0.082987		0.000000		0.398289		-0.000000		0.000000		0.000000		0.000000		-0.000000		0.000000		-0.148927		0.000000		0.420500		0.000000		0.000000		-0.000000		-18.255334		456.169016		75.361117		0.353059		1.254021		1.892358		1.022697		-25.555422		-4.221867		12.825885		539.228861		24.599054		-0.289883		1.263921		1.903800		0.732739		30.806018		1.405338		
0.386621		-0.000000		-0.000000		-0.000000		0.082987		0.000000		0.398289		-0.000000		-0.000000		0.000000		0.000000		-0.000000		-0.000000		-0.148927		0.000000		0.420500		-0.000000		0.000000		-0.000000		-18.851952		451.578882		73.681242		0.353120		1.253986		1.892275		1.054698		-25.264195		-4.122197		12.349910		536.440515		23.651468		-0.289847		1.263925		1.903830		0.707681		30.739427		1.355290		
0.390182		-0.000000		-0.000000		-0.000000		0.082987		0.000000		0.398289		-0.000000		-0.000000		0.000000		-0.000000		-0.000000		-0.000000		-0.148927		0.000000		0.420500		-0.000000		0.000000		-0.000000		-19.298393		447.557863		72.082366		0.353160		1.253967		1.892222		1.077877		-24.997546		-4.026033		11.886234		533.512090		22.510710		-0.289809		1.263927		1.903862		0.683117		30.661610		1.293718		
0.393742		0.000000		-0.000000		-0.000000		0.082987		0.000000		0.398289		-0.000000		-0.000000		0.000000		-0.000000		-0.000000		-0.000000		-0.148927		0.000000		0.420500		-0.000000		0.000000		-0.000000		-19.609020		444.071802		70.420087		0.353168		1.253979		1.892227		1.093302		-24.759256		-3.926278		11.419100		530.309601		21.086120		-0.289770		1.263926		1.903894		0.658223		30.568268		1.215452		
0.397303		0.000000		0.000000		-0.000000		0.082987		0.000000		0.398289		-0.000000		-0.000000		-0.000000		-0.000000		-0.000000		-0.000000		-0.148927		0.000000		0.420500		-0.000000		0.000000		-0.000000		-19.876199		441.014558		68.477011		0.353148		1.254017		1.892290		1.106568		-24.552618		-3.812324		10.943462		526.855048		19.343455		-0.289731		1.263925		1.903924		0.632824		30.466295		1.118566		
0.400864		0.000000		0.000000		0.000000		0.082987		0.000000		0.398289		0.000000		0.000000		-0.000000		-0.000000		0.000000		-0.000000		-0.148927		0.000000		0.420500		-0.000000		-0.000000		0.000000		-20.238714		438.258065		66.114414		0.353108		1.254077		1.892405		1.125873		-24.380155		-3.677924		10.466625		523.340611		17.276085		-0.289693		1.263924		1.903946		0.607423		30.371707		1.002604		
0.404424		0.000000		0.000000		0.000000		0.082987		0.000000		0.398289		0.000000		0.000000		-0.000000		0.000000		0.000000		0.000000		-0.148927		0.000000		0.420500		0.000000		-0.000000		0.000000		-20.873467		435.743100		63.253786		0.353066		1.254144		1.892537		1.161368		-24.244092		-3.519345		9.998652		520.069561		14.904811		-0.289659		1.263925		1.903961		0.582617		30.304219		0.868495		
0.407985		-0.000000		0.000000		0.000000		0.082987		0.000000		0.398289		0.000000		0.000000		-0.000000		0.000000		0.000000		0.000000		-0.148927		0.000000		0.420500		0.000000		-0.000000		0.000000		-21.892049		433.531637		59.931974		0.353040		1.254203		1.892653		1.219305		-24.146075		-3.337984		9.549837		517.333620		12.238208		-0.289631		1.263928		1.903969		0.558972		30.280597		0.716327		
0.411545		-0.000000		0.000000		0.000000		0.082987		0.000000		0.398289		0.000000		0.000000		-0.000000		0.000000		0.000000		0.000000		-0.148927		0.000000		0.420500		0.000000		-0.000000		0.000000		-23.263516		431.806641		56.250526		0.353043		1.254242		1.892722		1.297769		-24.088572		-3.137966		9.140080		515.265306		9.294355		-0.289613		1.263933		1.903978		0.537625		30.308245		0.546699		
0.415106		-0.000000		-0.000000		0.000000		0.082987		0.000000		0.398289		-0.000000		0.000000		0.000000		0.000000		-0.000000		0.000000		-0.148927		0.000000		0.420500		0.000000		0.000000		-0.000000		-24.802397		430.795110		52.345275		0.353078		1.254259		1.892734		1.386167		-24.076443		-2.925491		8.803297		513.734978		6.103757		-0.289603		1.263938		1.903991		0.520597		30.380548		0.360952		
0.418667		-0.000000		-0.000000		-0.000000		0.082987		0.000000		0.398289		-0.000000		-0.000000		0.000000		0.000000		-0.000000		-0.000000		-0.148927		0.000000		0.420500		0.000000		0.000000		-0.000000		-26.266346		430.671167		48.288590		0.353146		1.254248		1.892681		1.470898		-24.117283		-2.704125		8.570027		512.370079		2.717523		-0.289602		1.263942		1.904013		0.509779		30.477802		0.161644		
